<?xml version="1.0" encoding="utf-8"?>
<!-- Generator: Adobe Illustrator 16.0.0, SVG Export Plug-In . SVG Version: 6.00 Build 0)  -->
<!DOCTYPE svg PUBLIC "-//W3C//DTD SVG 1.1//EN" "http://www.w3.org/Graphics/SVG/1.1/DTD/svg11.dtd">
<svg version="1.1" id="Layer_1" xmlns="http://www.w3.org/2000/svg" xmlns:xlink="http://www.w3.org/1999/xlink" x="0px" y="0px"
	 width="69px" height="55px" viewBox="488.5 0 69 55" enable-background="new 488.5 0 69 55" xml:space="preserve">
<g>
	
		<image overflow="visible" opacity="0.75" width="848" height="848" xlink:href="429C41D0.png"  transform="matrix(0.072 0 0 0.072 491.8438 -3)">
	</image>
	<g>
		<g>
			<g>
				
					<radialGradient id="SVGID_1_" cx="520.4336" cy="12.7769" r="26.4534" fx="543.8009" fy="0.3771" gradientUnits="userSpaceOnUse">
					<stop  offset="0" style="stop-color:#3111F2"/>
					<stop  offset="0.6484" style="stop-color:#1E0A91"/>
				</radialGradient>
				<path fill="url(#SVGID_1_)" d="M520.252,5.568l-1.391,1.339c0.098,0.094,0.196,0.188,0.287,0.288
					c0.582,0.651,1.033,1.435,1.301,2.308c0.051,0.176,0.092,0.354,0.132,0.531c1.327-0.112,2.442-0.212,2.907-0.235
					c0.594-0.044,2.176-1.08,2.176-1.08l-1.511-2.663L520.252,5.568z"/>
				<g>
					
						<radialGradient id="SVGID_2_" cx="522.5049" cy="49.9941" r="7.1499" fx="528.8206" fy="46.6427" gradientUnits="userSpaceOnUse">
						<stop  offset="0" style="stop-color:#3111F2"/>
						<stop  offset="0.6484" style="stop-color:#1E0A91"/>
					</radialGradient>
					<path fill="url(#SVGID_2_)" d="M533.546,50.214c-0.005-0.004-0.01-0.007-0.017-0.01c-0.027-0.017-0.055-0.033-0.082-0.047
						c-0.009-0.006-0.021-0.013-0.029-0.017c-0.023-0.014-0.049-0.028-0.074-0.04c-0.011-0.006-0.023-0.012-0.034-0.019
						c-0.025-0.013-0.052-0.024-0.077-0.037c-0.012-0.005-0.022-0.011-0.034-0.016c-0.037-0.017-0.074-0.033-0.113-0.05
						c-1.145-0.482-3.417-0.767-6.811-0.853c-4.962-0.134-8.776-0.391-11.443-0.771c-1.043,1.118-1.83,2.158-2.362,3.121
						c-0.03,0.056-0.06,0.111-0.09,0.166c-0.011,0.021-0.02,0.042-0.031,0.062c-0.019,0.033-0.035,0.066-0.051,0.101
						c-0.014,0.026-0.026,0.054-0.039,0.078c-0.014,0.028-0.026,0.055-0.039,0.081c-0.014,0.029-0.028,0.061-0.04,0.089
						c-0.01,0.021-0.021,0.043-0.03,0.064c-0.014,0.033-0.029,0.066-0.043,0.102c-0.005,0.012-0.01,0.025-0.015,0.036
						c-0.097,0.23-0.159,0.452-0.224,0.674c3.23,1.332,6.767,2.071,10.477,2.071c4.458,0,8.664-1.067,12.388-2.95
						C534.64,51.261,534.258,50.641,533.546,50.214z"/>
					
						<radialGradient id="SVGID_3_" cx="520.8945" cy="23.2666" r="8.2236" fx="528.1588" fy="19.4119" gradientUnits="userSpaceOnUse">
						<stop  offset="0" style="stop-color:#3111F2"/>
						<stop  offset="0.6484" style="stop-color:#1E0A91"/>
					</radialGradient>
					<path fill="url(#SVGID_3_)" d="M527.482,29.175c0-3.496-0.758-6.233-2.273-8.212c-1.12-1.451-2.559-2.177-4.314-2.177
						c-1.627,0-2.988,0.648-4.086,1.946c-1.098,1.298-1.647,3.287-1.647,5.969c0,2.732,0.47,4.975,1.393,6.741
						c1.514,0.526,2.688,1.678,3.653,2.984l2.201,0.497c1.375-0.146,2.529-0.76,3.459-1.844
						C526.945,33.827,527.482,31.859,527.482,29.175z"/>
					
						<radialGradient id="SVGID_4_" cx="520.4336" cy="12.7769" r="26.4534" fx="543.8009" fy="0.3771" gradientUnits="userSpaceOnUse">
						<stop  offset="0" style="stop-color:#3111F2"/>
						<stop  offset="0.6484" style="stop-color:#1E0A91"/>
					</radialGradient>
					<path fill="url(#SVGID_4_)" d="M504.622,32.969l2.085-0.251l0.123,0.842l2.954-0.188c0.334-0.045,0.663-0.082,0.987-0.113
						c-0.896-1.557-1.358-3.263-1.358-5.129c0-3.001,1.129-5.583,3.391-7.745c2.261-2.161,5.154-3.242,8.684-3.242
						c2.792,0,5.224,0.657,7.296,1.969c1.775-1.737,3.097-3.219,3.981-4.451c-1.351,0.156-2.63,0.239-3.398,0.123
						c-0.305-0.046-0.625-0.104-0.95-0.171c-0.003,0.003-0.006,0.005-0.009,0.008c-2.092-0.429-4.438-1.184-4.438-1.184
						s-2.016,0.037-3.573-0.137c-0.17,0.523-0.383,1.022-0.68,1.468c-1.031,1.597-2.782,2.634-4.761,2.634
						c-3.194,0-5.78-2.708-5.78-6.05c0-3.343,2.585-6.05,5.78-6.05c0.266,0,0.524,0.025,0.78,0.062
						c1.046-1.125,2.906-3.043,3.754-3.405c1.214-0.518,9.765-0.961,9.765-0.961s6.996,3.994,9.597,5.725l0.522-0.007l-0.051-0.84
						C534.646,2.199,528.753,0,522.344,0c-15.188,0-27.5,12.312-27.5,27.5c0,1.999,0.215,3.946,0.62,5.824l9.112-0.683
						L504.622,32.969z"/>
					
						<radialGradient id="SVGID_5_" cx="520.4336" cy="12.7769" r="26.4534" fx="543.8009" fy="0.3771" gradientUnits="userSpaceOnUse">
						<stop  offset="0" style="stop-color:#3111F2"/>
						<stop  offset="0.6484" style="stop-color:#1E0A91"/>
					</radialGradient>
					<path fill="url(#SVGID_5_)" d="M547.95,17.474l-5.444,0.09l-0.073-1.2l-2.468,0.164l-0.164-2.713l-1.575-0.038
						c0,0-1.899,0.385-4.008,0.692c-0.318,0.4-0.659,0.805-1.034,1.214c-2.03,2.213-3.309,3.638-3.843,4.134l0.03,0.182h4.354
						c0.899,0,1.53-0.012,1.894-0.079c0.361-0.066,0.689-0.183,0.98-0.387c0.292-0.204,0.546,0.466,0.762-0.534h0.464l-1.494,3
						h-4.588c1.026,2,1.541,3.739,1.541,5.994c0,2.83-1.08,5.58-3.237,7.591c-0.092,0.086-0.193,0.159-0.287,0.241
						c0.393-0.013,0.675,0.183,0.809,0.448l1.475-0.875c1.463-0.872,2.238,0.898,1.436,1.348l-0.233,0.132l2.126-0.503
						c1.273-0.219,1.753,0.789,1.408,1.457c0.074,0.131,0.094,0.295-0.012,0.326l-1.224,0.386l-11.369,3.888
						c-1.351,0.458-4.293-0.344-9.774-1.394c-0.071,0.237-0.111,0.458-0.111,0.657c0,0.372,0.18,0.731,0.545,1.081
						s1.076,0.602,2.135,0.754c0.617,0.097,2.161,0.183,4.633,0.257c4.543,0.12,7.489,0.293,8.834,0.513
						c2.051,0.286,3.688,1.044,4.913,2.277c0.048,0.047,0.093,0.095,0.138,0.143c0.014,0.015,0.026,0.029,0.04,0.042
						c0.034,0.039,0.069,0.077,0.105,0.117c0.009,0.01,0.021,0.022,0.03,0.034c0.043,0.051,0.085,0.1,0.126,0.151
						c0.008,0.008,0.015,0.016,0.021,0.026c0.035,0.042,0.069,0.086,0.104,0.13c0.009,0.014,0.02,0.026,0.028,0.038
						c0.038,0.051,0.076,0.102,0.113,0.154c0,0.001,0.001,0.002,0.002,0.002c0.039,0.058,0.077,0.112,0.113,0.169
						c0.007,0.008,0.013,0.019,0.019,0.026c0.033,0.049,0.063,0.1,0.095,0.149c0.003,0.009,0.01,0.015,0.013,0.022
						c0.07,0.115,0.137,0.235,0.198,0.354c0.005,0.006,0.008,0.013,0.011,0.019c0.223,0.437,0.393,0.9,0.505,1.39
						c0.083,0.357,0.126,0.732,0.149,1.116c7.625-4.889,12.684-13.432,12.684-23.162C549.844,23.961,549.168,20.582,547.95,17.474z"
						/>
					
						<radialGradient id="SVGID_6_" cx="520.4326" cy="12.7769" r="26.4534" fx="543.7999" fy="0.3771" gradientUnits="userSpaceOnUse">
						<stop  offset="0" style="stop-color:#3111F2"/>
						<stop  offset="0.6484" style="stop-color:#1E0A91"/>
					</radialGradient>
					<path fill="url(#SVGID_6_)" d="M507.915,41.005l0.337,2.313l-2.129,0.27l-0.292-2.003l0.332,2.362l-5.17,0.875
						c2.331,2.867,5.225,5.258,8.518,6.999c0.042-0.054,0.08-0.103,0.123-0.156c0.005-0.005,0.011-0.006,0.018-0.006
						c0.115-0.223,0.517-0.586,1.211-1.313c0.003-0.003,0.004-0.02,0.008-0.022c0.034-0.036,0.068-0.073,0.105-0.111
						c0.008-0.007,0.016-0.016,0.023-0.023c0.031-0.032,0.062-0.064,0.092-0.099c0.018-0.017,0.034-0.034,0.051-0.051
						c0.025-0.027,0.051-0.054,0.076-0.08c0.021-0.023,0.043-0.046,0.066-0.07c0.021-0.022,0.043-0.044,0.064-0.066
						c0.03-0.031,0.063-0.065,0.093-0.098c0.015-0.016,0.028-0.028,0.041-0.044c0.044-0.042,0.087-0.089,0.13-0.135
						c0.004-0.003,0.008-0.007,0.013-0.012c0.402-0.421,0.866-0.901,1.388-1.443c-1.144-0.686-1.953-1.299-2.428-1.84
						c-0.473-0.54-0.71-1.152-0.71-1.836c0-0.773,0.314-1.678,0.942-2.716c0.204-0.338,0.505-0.726,0.882-1.155
						c-0.311-0.055-0.619-0.109-0.943-0.164L507.915,41.005z"/>
				</g>
			</g>
		</g>
		<defs>
			<filter id="Adobe_OpacityMaskFilter" filterUnits="userSpaceOnUse" x="494.844" y="0" width="55" height="55">
				
					<feColorMatrix  type="matrix" values="-1 0 0 0 1  0 -1 0 0 1  0 0 -1 0 1  0 0 0 1 0" color-interpolation-filters="sRGB" result="source"/>
			</filter>
		</defs>
		<mask maskUnits="userSpaceOnUse" x="494.844" y="0" width="55" height="55" id="SVGID_7_">
			<g filter="url(#Adobe_OpacityMaskFilter)">
				
					<image overflow="visible" width="820" height="820" xlink:href="429C41D0.jpg"  transform="matrix(0.072 0 0 0.072 492.8438 -2)">
				</image>
			</g>
		</mask>
		<g opacity="0.75" mask="url(#SVGID_7_)">
			<g>
				<path fill="#4874FF" d="M520.252,5.568l-1.391,1.339c0.098,0.094,0.196,0.188,0.287,0.288c0.582,0.651,1.033,1.435,1.301,2.308
					c0.051,0.176,0.092,0.354,0.132,0.531c1.327-0.112,2.442-0.212,2.907-0.235c0.594-0.044,2.176-1.08,2.176-1.08l-1.511-2.663
					L520.252,5.568z"/>
				<g>
					<path fill="#4874FF" d="M533.546,50.214c-0.005-0.004-0.01-0.007-0.017-0.01c-0.027-0.017-0.055-0.033-0.082-0.047
						c-0.009-0.006-0.021-0.013-0.029-0.017c-0.023-0.014-0.049-0.028-0.074-0.04c-0.011-0.006-0.023-0.012-0.034-0.019
						c-0.025-0.013-0.052-0.024-0.077-0.037c-0.012-0.005-0.022-0.011-0.034-0.016c-0.037-0.017-0.074-0.033-0.113-0.05
						c-1.145-0.482-3.417-0.767-6.811-0.853c-4.962-0.134-8.776-0.391-11.443-0.771c-1.043,1.118-1.83,2.158-2.362,3.121
						c-0.03,0.056-0.06,0.111-0.09,0.166c-0.011,0.021-0.02,0.042-0.031,0.062c-0.019,0.033-0.035,0.066-0.051,0.101
						c-0.014,0.026-0.026,0.054-0.039,0.078c-0.014,0.028-0.026,0.055-0.039,0.081c-0.014,0.029-0.028,0.061-0.04,0.089
						c-0.01,0.021-0.021,0.043-0.03,0.064c-0.014,0.033-0.029,0.066-0.043,0.102c-0.005,0.012-0.01,0.025-0.015,0.036
						c-0.097,0.23-0.159,0.452-0.224,0.674c3.23,1.332,6.767,2.071,10.477,2.071c4.458,0,8.664-1.067,12.388-2.95
						C534.64,51.261,534.258,50.641,533.546,50.214z"/>
					<path fill="#4874FF" d="M527.482,29.175c0-3.496-0.758-6.233-2.273-8.212c-1.12-1.451-2.559-2.177-4.314-2.177
						c-1.627,0-2.988,0.648-4.086,1.946c-1.098,1.298-1.647,3.287-1.647,5.969c0,2.732,0.47,4.975,1.393,6.741
						c1.514,0.526,2.688,1.678,3.653,2.984l2.201,0.497c1.375-0.146,2.529-0.76,3.459-1.844
						C526.945,33.827,527.482,31.859,527.482,29.175z"/>
					<path fill="#4874FF" d="M504.622,32.969l2.085-0.251l0.123,0.842l2.954-0.188c0.334-0.045,0.663-0.082,0.987-0.113
						c-0.896-1.557-1.358-3.263-1.358-5.129c0-3.001,1.129-5.583,3.391-7.745c2.261-2.161,5.154-3.242,8.684-3.242
						c2.792,0,5.224,0.657,7.296,1.969c1.775-1.737,3.097-3.219,3.981-4.451c-1.351,0.156-2.63,0.239-3.398,0.123
						c-0.305-0.046-0.625-0.104-0.95-0.171c-0.003,0.003-0.006,0.005-0.009,0.008c-2.092-0.429-4.438-1.184-4.438-1.184
						s-2.016,0.037-3.573-0.137c-0.17,0.523-0.383,1.022-0.68,1.468c-1.031,1.597-2.782,2.634-4.761,2.634
						c-3.194,0-5.78-2.708-5.78-6.05c0-3.343,2.585-6.05,5.78-6.05c0.266,0,0.524,0.025,0.78,0.062
						c1.046-1.125,2.906-3.043,3.754-3.405c1.214-0.518,9.765-0.961,9.765-0.961s6.996,3.994,9.597,5.725l0.522-0.007l-0.051-0.84
						C534.646,2.199,528.753,0,522.344,0c-15.188,0-27.5,12.312-27.5,27.5c0,1.999,0.215,3.946,0.62,5.824l9.112-0.683
						L504.622,32.969z"/>
					<path fill="#4874FF" d="M547.95,17.474l-5.444,0.09l-0.073-1.2l-2.468,0.164l-0.164-2.713l-1.575-0.038
						c0,0-1.899,0.385-4.008,0.692c-0.318,0.4-0.659,0.805-1.034,1.214c-2.03,2.213-3.309,3.638-3.843,4.134l0.03,0.182h4.354
						c0.899,0,1.53-0.012,1.894-0.079c0.361-0.066,0.689-0.183,0.98-0.387c0.292-0.204,0.546,0.466,0.762-0.534h0.464l-1.494,3
						h-4.588c1.026,2,1.541,3.739,1.541,5.994c0,2.83-1.08,5.58-3.237,7.591c-0.092,0.086-0.193,0.159-0.287,0.241
						c0.393-0.013,0.675,0.183,0.809,0.448l1.475-0.875c1.463-0.872,2.238,0.898,1.436,1.348l-0.233,0.132l2.126-0.503
						c1.273-0.219,1.753,0.789,1.408,1.457c0.074,0.131,0.094,0.295-0.012,0.326l-1.224,0.386l-11.369,3.888
						c-1.351,0.458-4.293-0.344-9.774-1.394c-0.071,0.237-0.111,0.458-0.111,0.657c0,0.372,0.18,0.731,0.545,1.081
						s1.076,0.602,2.135,0.754c0.617,0.097,2.161,0.183,4.633,0.257c4.543,0.12,7.489,0.293,8.834,0.513
						c2.051,0.286,3.688,1.044,4.913,2.277c0.048,0.047,0.093,0.095,0.138,0.143c0.014,0.015,0.026,0.029,0.04,0.042
						c0.034,0.039,0.069,0.077,0.105,0.117c0.009,0.01,0.021,0.022,0.03,0.034c0.043,0.051,0.085,0.1,0.126,0.151
						c0.008,0.008,0.015,0.016,0.021,0.026c0.035,0.042,0.069,0.086,0.104,0.13c0.009,0.014,0.02,0.026,0.028,0.038
						c0.038,0.051,0.076,0.102,0.113,0.154c0,0.001,0.001,0.002,0.002,0.002c0.039,0.058,0.077,0.112,0.113,0.169
						c0.007,0.008,0.013,0.019,0.019,0.026c0.033,0.049,0.063,0.1,0.095,0.149c0.003,0.009,0.01,0.015,0.013,0.022
						c0.07,0.115,0.137,0.235,0.198,0.354c0.005,0.006,0.008,0.013,0.011,0.019c0.223,0.437,0.393,0.9,0.505,1.39
						c0.083,0.357,0.126,0.732,0.149,1.116c7.625-4.889,12.684-13.432,12.684-23.162C549.844,23.961,549.168,20.582,547.95,17.474z"
						/>
					<path fill="#4874FF" d="M507.915,41.005l0.337,2.313l-2.129,0.27l-0.292-2.003l0.332,2.362l-5.17,0.875
						c2.331,2.867,5.225,5.258,8.518,6.999c0.042-0.054,0.08-0.103,0.123-0.156c0.005-0.005,0.011-0.006,0.018-0.006
						c0.115-0.223,0.517-0.586,1.211-1.313c0.003-0.003,0.004-0.02,0.008-0.022c0.034-0.036,0.068-0.073,0.105-0.111
						c0.008-0.007,0.016-0.016,0.023-0.023c0.031-0.032,0.062-0.064,0.092-0.099c0.018-0.017,0.034-0.034,0.051-0.051
						c0.025-0.027,0.051-0.054,0.076-0.08c0.021-0.023,0.043-0.046,0.066-0.07c0.021-0.022,0.043-0.044,0.064-0.066
						c0.03-0.031,0.063-0.065,0.093-0.098c0.015-0.016,0.028-0.028,0.041-0.044c0.044-0.042,0.087-0.089,0.13-0.135
						c0.004-0.003,0.008-0.007,0.013-0.012c0.402-0.421,0.866-0.901,1.388-1.443c-1.144-0.686-1.953-1.299-2.428-1.84
						c-0.473-0.54-0.71-1.152-0.71-1.836c0-0.773,0.314-1.678,0.942-2.716c0.204-0.338,0.505-0.726,0.882-1.155
						c-0.311-0.055-0.619-0.109-0.943-0.164L507.915,41.005z"/>
				</g>
			</g>
		</g>
	</g>
</g>
</svg>
